<svg xmlns="http://www.w3.org/2000/svg" viewBox="0 0 150 280">
  <path d="M75 280 C75 240, 85 200, 115 160 C135 130, 145 90, 135 50 C120 15, 90 5, 75 0 C60 5, 30 15, 15 50 C5 90, 15 130, 35 160 C65 200, 75 240, 75 280 Z" fill="none" stroke="#2D6B5F" stroke-width="1.5" stroke-linecap="round"/>
  <path d="M75 280 Q85 140 75 0" fill="none" stroke="#2D6B5F" stroke-width="1.2" stroke-linecap="round"/>
  <path d="M78 190 Q105 160 120 140" fill="none" stroke="#2D6B5F" stroke-width="0.8" stroke-linecap="round"/>
  <path d="M72 170 Q45 130 25 110" fill="none" stroke="#2D6B5F" stroke-width="0.8" stroke-linecap="round"/>
  <path d="M76 110 Q100 80 115 60" fill="none" stroke="#2D6B5F" stroke-width="0.8" stroke-linecap="round"/>
  <path d="M73 80 Q50 50 35 40" fill="none" stroke="#2D6B5F" stroke-width="0.8" stroke-linecap="round"/>
</svg>
